<?xml version="1.0" encoding="UTF-8" standalone="no"?>
<!DOCTYPE svg PUBLIC "-//W3C//DTD SVG 1.1//EN" "http://www.w3.org/Graphics/SVG/1.1/DTD/svg11.dtd">

<svg width="100%" height="100%" viewBox="0 0 449 467" version="1.1" xmlns="http://www.w3.org/2000/svg">
    <path
        d="M209.505,429.511c0,0 34.918,-117.879 102.813,-213.193c-1.305,50.921 -1.623,96.232 11.433,141.278c-25.46,7.834 -99.884,47.863 -114.246,71.915Z"
        style="fill:#fff;stroke-width:0;stroke-dasharray:100"/>
    <path
        d="M159.714,466.23c0,0 -121.077,-83.313 -159.594,-368.603c44.207,-35.351 152.48,-66.701 268.267,-40.97c-22.849,6.528 -105.584,28.85 -163.687,70.631c-3.917,50.922 17.802,243.605 55.014,338.942Z"
        style="fill:#fff;stroke-width:0;stroke-dasharray:100"/>
    <path
        d="M179.499,432.451c0,0 -35.73,-134.009 -25.284,-276.98c41.781,-35.254 152.689,-107.041 293.702,-155.351c-105.76,78.993 -212.927,248.921 -268.418,432.331Z"
        style="fill:#fff;stroke-width:0;stroke-dasharray:100"/>
</svg>
