<?xml version="1.0" encoding="UTF-8" standalone="no"?><!DOCTYPE svg PUBLIC "-//W3C//DTD SVG 1.1//EN" "http://www.w3.org/Graphics/SVG/1.1/DTD/svg11.dtd"><svg width="100%" height="100%" viewBox="0 0 1000 1000" version="1.1" xmlns="http://www.w3.org/2000/svg" xmlns:xlink="http://www.w3.org/1999/xlink" xml:space="preserve" style="fill-rule:evenodd;clip-rule:evenodd;stroke-linejoin:round;stroke-miterlimit:1.41421;"><path id="Frame" d="M900,295c0,-26.492 -21.508,-48 -48,-48l-704,0c-26.492,0 -48,21.508 -48,48l0,432l800,0l0,-432Z" style="fill:#a6a6a6;"/><circle id="Webcam" cx="492" cy="274" r="10" style="fill:#333;fill-opacity:0.25;"/><circle id="Microphone" cx="512" cy="274" r="6" style="fill:#333;fill-opacity:0.25;"/><path id="Keyboard" d="M954,727l-908,0l0,35.51c0,19.599 15.911,35.51 35.51,35.51l836.98,0c19.599,0 35.51,-15.911 35.51,-35.51l0,-35.51Z" style="fill:#808080;"/><path id="Trackpad" d="M682,727l-364,0l0,15.243c0,8.412 6.83,15.242 15.243,15.242l333.514,0c8.413,0 15.243,-6.83 15.243,-15.242l0,-15.243Z" style="fill:#333;"/><rect id="Screen" x="125" y="300" width="750" height="400" style="fill:#b00505;"/><clipPath id="_clip1"><rect x="125" y="300" width="750" height="400"/></clipPath><g clip-path="url(#_clip1)"><g id="Cogs"><path d="M260.358,471.525c-9.012,-1.428 -18.192,-1.428 -27.204,0l-1.764,13.586c-6.74,1.433 -13.247,3.801 -19.331,7.036l-10.085,-9.274c-7.82,4.699 -14.853,10.6 -20.839,17.486l7.382,11.542c-4.242,5.43 -7.704,11.427 -10.285,17.816l-13.687,-0.622c-2.971,8.627 -4.565,17.668 -4.724,26.79l13.074,4.097c0.24,6.886 1.443,13.705 3.572,20.259l-10.884,8.321c3.269,8.518 7.86,16.468 13.601,23.559l12.649,-5.266c4.611,5.121 9.915,9.572 15.759,13.224l-2.989,13.37c7.98,4.424 16.606,7.564 25.563,9.305l6.304,-12.164c6.824,0.959 13.748,0.959 20.572,0l6.305,12.164c8.956,-1.741 17.583,-4.881 25.563,-9.305l-2.99,-13.37c5.844,-3.652 11.148,-8.103 15.759,-13.224l12.649,5.266c5.742,-7.091 10.332,-15.041 13.602,-23.559l-10.885,-8.321c2.129,-6.554 3.332,-13.373 3.572,-20.259l13.074,-4.097c-0.159,-9.122 -1.753,-18.163 -4.723,-26.79l-13.687,0.622c-2.582,-6.389 -6.044,-12.386 -10.286,-17.816l7.382,-11.542c-5.986,-6.886 -13.018,-12.787 -20.839,-17.486l-10.085,9.274c-6.084,-3.235 -12.591,-5.603 -19.331,-7.036l-1.764,-13.586Zm-13.602,42.403c23.994,0 43.474,19.48 43.474,43.475c0,23.994 -19.48,43.474 -43.474,43.474c-23.994,0 -43.474,-19.48 -43.474,-43.474c0,-23.995 19.48,-43.475 43.474,-43.475Z" style="fill:#6b1010;"/><path d="M313.132,326.744c-8.999,1.505 -17.705,4.416 -25.799,8.627l2.635,13.445c-5.938,3.496 -11.358,7.806 -16.102,12.803l-12.505,-5.597c-5.927,6.937 -10.725,14.763 -14.218,23.192l10.661,8.605c-2.302,6.495 -3.684,13.28 -4.106,20.158l-13.177,3.75c-0.081,9.124 1.274,18.204 4.016,26.906l13.698,-0.261c2.412,6.455 5.715,12.541 9.812,18.081l-7.683,11.343c5.802,7.042 12.676,13.126 20.37,18.03l10.326,-9.005c5.997,3.394 12.439,5.933 19.139,7.543l1.405,13.629c8.971,1.664 18.148,1.906 27.194,0.717l2.122,-13.535c6.776,-1.255 13.342,-3.451 19.51,-6.524l9.837,9.537c7.942,-4.492 15.127,-10.205 21.293,-16.931l-7.075,-11.732c4.384,-5.317 8.003,-11.22 10.752,-17.538l13.665,0.982c3.197,-8.545 5.029,-17.541 5.429,-26.656l-12.962,-4.44c-0.058,-6.891 -1.08,-13.739 -3.036,-20.346l11.1,-8.032c-3.044,-8.601 -7.423,-16.669 -12.976,-23.909l-12.783,4.93c-4.474,-5.241 -9.659,-9.83 -15.404,-13.634l3.34,-13.287c-7.86,-4.633 -16.401,-7.999 -25.308,-9.975l-6.624,11.993c-6.796,-1.139 -13.718,-1.321 -20.564,-0.542l-5.982,-12.327Zm0.547,44.529c22.756,-7.609 47.408,4.688 55.017,27.444c7.609,22.755 -4.688,47.408 -27.444,55.017c-22.755,7.609 -47.407,-4.689 -55.016,-27.444c-7.609,-22.756 4.688,-47.408 27.443,-55.017Z" style="fill:#6b1010;"/><path d="M581.315,494.473c-8.124,-6.878 -17.28,-12.434 -27.132,-16.465l-9.983,12.484c-7.59,-2.651 -15.513,-4.227 -23.539,-4.683l-4.445,-15.354c-10.645,-0.047 -21.231,1.582 -31.369,4.827l0.377,15.98c-7.518,2.848 -14.6,6.734 -21.042,11.544l-13.274,-8.905c-8.184,6.807 -15.246,14.859 -20.927,23.861l10.561,11.999c-3.929,7.015 -6.857,14.543 -8.699,22.369l-15.893,1.711c-1.894,10.475 -2.128,21.183 -0.693,31.73l15.803,2.404c1.499,7.898 4.096,15.548 7.714,22.727l-11.074,11.526c5.282,9.242 11.985,17.595 19.864,24.752l13.651,-8.316c6.225,5.086 13.131,9.277 20.518,12.451l-1.074,15.948c9.986,3.685 20.491,5.774 31.127,6.193l5.111,-15.145c8.039,-0.106 16.023,-1.334 23.721,-3.651l9.429,12.908c10.018,-3.597 19.408,-8.749 27.825,-15.265l-5.819,-14.888c6.09,-5.247 11.417,-11.321 15.825,-18.043l15.519,3.827c5.363,-9.195 9.245,-19.177 11.503,-29.58l-14.027,-7.663c1.293,-7.935 1.469,-16.011 0.524,-23.995l14.349,-7.044c-1.803,-10.491 -5.245,-20.632 -10.201,-30.053l-15.672,3.146c-4.11,-6.909 -9.166,-13.209 -15.022,-18.718l6.464,-14.619Zm-39.231,34.06c23.931,14.523 31.57,45.743 17.047,69.674c-14.522,23.931 -45.742,31.57 -69.673,17.047c-23.932,-14.522 -31.57,-45.742 -17.048,-69.673c14.523,-23.931 45.743,-31.57 69.674,-17.048Z" style="fill:#6b1010;"/></g><g id="Exclamation"><circle cx="739.5" cy="632.5" r="23.5" style="fill:#6b1010;"/><path d="M763,367.5c0,-12.97 -10.53,-23.5 -23.5,-23.5c-12.97,0 -23.5,10.53 -23.5,23.5l0,197c0,12.97 10.53,23.5 23.5,23.5c12.97,0 23.5,-10.53 23.5,-23.5l0,-197Z" style="fill:#6b1010;"/></g><g id="Reflections"><g opacity="0.398551"><path d="M52.265,741l430.454,-555.804l-52.265,-40.478l-430.454,555.804l52.265,40.478Z" style="fill:url(#_Linear2);"/><path d="M97.484,778.902l430.454,-555.804l-9.503,-7.36l-430.454,555.804l9.503,7.36Z" style="fill:url(#_Linear3);"/><path d="M134.709,812.02l430.454,-555.804l-30.728,-23.798l-430.454,555.804l30.728,23.798Z" style="fill:url(#_Linear4);"/></g></g></g><defs><linearGradient id="_Linear2" x1="0" y1="0" x2="1" y2="0" gradientUnits="userSpaceOnUse" gradientTransform="matrix(-430.454,555.804,-52.265,-40.4777,456.586,164.957)"><stop offset="0" style="stop-color:#fff;stop-opacity:1"/><stop offset="1" style="stop-color:#fff;stop-opacity:0.501961"/></linearGradient><linearGradient id="_Linear3" x1="0" y1="0" x2="1" y2="0" gradientUnits="userSpaceOnUse" gradientTransform="matrix(-430.454,555.804,-9.50307,-7.35984,523.187,219.418)"><stop offset="0" style="stop-color:#fff;stop-opacity:1"/><stop offset="1" style="stop-color:#fff;stop-opacity:0.501961"/></linearGradient><linearGradient id="_Linear4" x1="0" y1="0" x2="1" y2="0" gradientUnits="userSpaceOnUse" gradientTransform="matrix(-430.454,555.804,-30.7278,-23.7978,549.799,244.317)"><stop offset="0" style="stop-color:#fff;stop-opacity:1"/><stop offset="1" style="stop-color:#fff;stop-opacity:0.501961"/></linearGradient></defs></svg>