<?xml version="1.0" encoding="UTF-8"?>
<!DOCTYPE svg PUBLIC "-//W3C//DTD SVG 1.1//EN" "http://www.w3.org/Graphics/SVG/1.1/DTD/svg11.dtd">

<svg xmlns="http://www.w3.org/2000/svg" xmlns:xlink="http://www.w3.org/1999/xlink" version="1.1" id="icons" width="24" height="24" viewBox="0 0 24 24">

    <g id="ic_dev">
        <path fill="#000000" d="M14.6,16.6L19.2,12L14.6,7.4L16,6L22,12L16,18L14.6,16.6M9.4,16.6L4.8,12L9.4,7.4L8,6L2,12L8,18L9.4,16.6Z" />
    </g>
    <g id="ic_art">
        <path fill="#000000" d="M20.71,4.63L19.37,3.29C19,2.9 18.35,2.9 17.96,3.29L9,12.25L11.75,15L20.71,6.04C21.1,5.65 21.1,5 20.71,4.63M7,14A3,3 0 0,0 4,17C4,18.31 2.84,19 2,19C2.92,20.22 4.5,21 6,21A4,4 0 0,0 10,17A3,3 0 0,0 7,14Z" />
    </g>
    <g id="ic_log">
        <path fill="#000000" d="M14.6,16.6L19.2,12L14.6,7.4L16,6L22,12L16,18L14.6,16.6M9.4,16.6L4.8,12L9.4,7.4L8,6L2,12L8,18L9.4,16.6Z" />
    </g>

</svg>
